<svg width="519" height="474" viewBox="0 0 519 474" fill="none" xmlns="http://www.w3.org/2000/svg">
<g filter="url(#filter0_d_4_21)">
<rect x="9" y="5" width="505" height="460" rx="60" stroke="#4D6454" stroke-width="10" shape-rendering="crispEdges"/>
</g>
<g filter="url(#filter1_i_4_21)">
<mask id="mask0_4_21" style="mask-type:alpha" maskUnits="userSpaceOnUse" x="52" y="40" width="418" height="340">
<path d="M424.615 380H276.658L265.765 262.64H255.781L245.342 380H92.8469L52 40H187.249L198.595 171.168H208.58L216.295 50.3553H307.974L317.051 171.168H326.582L338.382 40H470L424.615 380Z" fill="white"/>
<path d="M424.615 380H276.658L265.765 262.64H255.781L245.342 380H92.8469L52 40H187.249L198.595 171.168H208.58L216.295 50.3553H307.974L317.051 171.168H326.582L338.382 40H470L424.615 380Z" stroke="black"/>
</mask>
<g mask="url(#mask0_4_21)">
<path d="M459.615 387H311.658L300.765 269.64H290.781L280.342 387H127.847L87 47H222.249L233.595 178.168H243.58L251.295 57.3553H342.974L352.051 178.168H361.582L373.382 47H505L459.615 387Z" fill="#4D6454"/>
</g>
</g>
<defs>
<filter id="filter0_d_4_21" x="0" y="0" width="519" height="474" filterUnits="userSpaceOnUse" color-interpolation-filters="sRGB">
<feFlood flood-opacity="0" result="BackgroundImageFix"/>
<feColorMatrix in="SourceAlpha" type="matrix" values="0 0 0 0 0 0 0 0 0 0 0 0 0 0 0 0 0 0 127 0" result="hardAlpha"/>
<feOffset dx="-4" dy="4"/>
<feComposite in2="hardAlpha" operator="out"/>
<feColorMatrix type="matrix" values="0 0 0 0 0.0117647 0 0 0 0 0.160784 0 0 0 0 0.0823529 0 0 0 0.25 0"/>
<feBlend mode="normal" in2="BackgroundImageFix" result="effect1_dropShadow_4_21"/>
<feBlend mode="normal" in="SourceGraphic" in2="effect1_dropShadow_4_21" result="shape"/>
</filter>
<filter id="filter1_i_4_21" x="83" y="47" width="387" height="337" filterUnits="userSpaceOnUse" color-interpolation-filters="sRGB">
<feFlood flood-opacity="0" result="BackgroundImageFix"/>
<feBlend mode="normal" in="SourceGraphic" in2="BackgroundImageFix" result="shape"/>
<feColorMatrix in="SourceAlpha" type="matrix" values="0 0 0 0 0 0 0 0 0 0 0 0 0 0 0 0 0 0 127 0" result="hardAlpha"/>
<feOffset dx="-4" dy="4"/>
<feGaussianBlur stdDeviation="2"/>
<feComposite in2="hardAlpha" operator="arithmetic" k2="-1" k3="1"/>
<feColorMatrix type="matrix" values="0 0 0 0 0 0 0 0 0 0 0 0 0 0 0 0 0 0 0.25 0"/>
<feBlend mode="normal" in2="shape" result="effect1_innerShadow_4_21"/>
</filter>
</defs>
</svg>
